<svg xmlns="http://www.w3.org/2000/svg" viewBox="0 0 1254 1254">
<rect x="0" y="0" width="1254" height="1254" fill="#000000"/>
<path d="M 401.00,657.00 L 401.75,661.50 L 406.25,665.50 L 423.25,674.50 L 434.00,677.75 L 447.00,679.75 L 465.75,678.75 L 483.50,673.50 L 496.50,666.50 L 502.75,660.75 L 502.75,654.00 L 497.50,642.25 L 487.50,631.25 L 474.50,624.25 L 462.75,621.00 L 442.00,621.00 L 432.25,623.25 L 421.25,628.25 L 414.25,633.25 L 408.25,640.25 L 403.25,649.25 Z M 448.00,547.00 L 436.25,551.25 L 428.25,558.25 L 423.00,568.00 L 422.00,572.00 L 422.00,582.75 L 423.25,587.50 L 427.25,595.50 L 433.25,601.50 L 444.00,606.75 L 448.00,607.75 L 455.75,607.75 L 463.50,605.50 L 469.50,602.50 L 476.50,595.50 L 479.50,590.50 L 481.75,583.75 L 481.75,570.00 L 476.50,559.25 L 469.50,552.25 L 463.50,549.25 L 455.75,547.00 Z M 94.25,78.25 L 33.25,155.25 L 0.00,247.00 L 0.00,1003.75 L 75.25,1155.50 L 166.25,1224.50 L 268.00,1253.75 L 985.75,1253.75 L 1078.50,1228.50 L 1161.50,1172.50 L 1225.50,1085.50 L 1253.75,989.75 L 1253.75,264.00 L 1226.50,170.25 L 1171.50,90.25 L 1085.50,27.25 L 989.75,0.00 L 264.00,0.00 L 174.25,24.25 Z M 431.75,903.00 L 438.00,896.75 L 624.75,896.75 L 629.75,900.25 L 632.00,906.75 L 630.75,910.50 L 624.75,915.00 L 438.00,915.00 L 433.50,911.50 Z M 382.00,889.75 L 387.75,889.75 L 393.50,892.00 L 397.75,896.25 L 400.00,901.00 L 400.00,908.75 L 397.75,913.50 L 393.50,917.75 L 388.75,920.00 L 382.00,920.00 L 377.25,917.75 L 372.00,912.50 L 370.75,909.75 L 370.75,901.00 L 373.00,896.25 L 377.25,892.00 Z M 431.75,831.00 L 435.25,826.00 L 441.00,823.75 L 671.75,823.75 L 678.75,827.50 L 681.00,835.75 L 672.75,843.00 L 440.00,843.00 L 433.00,838.50 Z M 382.00,817.75 L 388.75,817.75 L 393.50,820.00 L 398.75,825.25 L 400.00,829.00 L 400.00,836.75 L 396.75,842.50 L 395.50,843.75 L 390.50,846.75 L 388.00,847.00 L 385.50,848.00 L 382.75,847.00 L 380.25,846.75 L 376.25,844.75 L 373.00,841.50 L 371.00,837.50 L 370.75,835.00 L 369.75,832.50 L 370.75,829.75 L 370.75,828.00 L 372.00,825.25 L 377.25,820.00 Z M 819.50,756.00 L 886.75,805.25 L 787.75,939.25 L 702.50,1003.75 L 697.25,1004.75 L 692.50,1001.50 L 691.75,996.00 L 721.00,896.25 L 815.00,758.25 Z M 431.75,758.00 L 440.00,750.75 L 721.75,750.75 L 729.75,756.25 L 730.00,763.75 L 722.75,770.00 L 439.00,770.00 L 433.00,765.50 Z M 383.00,743.75 L 387.75,743.75 L 394.50,747.00 L 397.75,750.25 L 400.00,755.00 L 400.00,762.75 L 398.75,766.50 L 393.50,771.75 L 388.75,774.00 L 382.00,774.00 L 378.25,772.75 L 372.00,766.50 L 370.75,763.75 L 370.75,755.00 L 373.00,750.25 L 376.25,747.00 L 379.25,745.00 Z M 579.75,660.00 L 583.25,654.75 L 589.00,651.75 L 748.75,651.75 L 756.75,656.25 L 758.00,663.75 L 753.50,669.75 L 749.75,671.00 L 588.00,671.00 L 581.00,666.50 Z M 1019.50,619.00 L 1031.00,627.25 L 1037.75,638.25 L 1039.00,651.75 L 1035.75,661.50 L 955.75,780.50 L 949.50,785.75 L 942.25,785.75 L 936.00,780.50 L 935.00,772.25 L 1013.50,655.50 L 1015.75,645.00 L 1008.25,637.50 L 1007.75,634.00 L 1016.00,620.25 Z M 579.75,605.00 L 588.00,597.75 L 803.75,597.75 L 809.75,601.25 L 812.00,608.75 L 809.25,613.75 L 802.75,617.00 L 588.00,617.00 L 581.00,612.50 Z M 955.75,587.75 L 975.50,597.00 L 994.00,613.25 L 1001.75,625.25 L 1003.00,635.75 L 899.75,791.50 L 894.00,793.00 L 827.25,746.75 L 824.75,742.00 L 932.00,593.25 L 942.00,586.75 Z M 982.25,543.00 L 992.00,540.75 L 997.75,540.75 L 1006.50,543.00 L 1018.50,550.00 L 1024.75,557.25 L 1030.00,570.00 L 1029.00,584.75 L 1022.75,598.50 L 1012.00,615.75 L 1010.00,615.00 L 1006.50,608.25 L 1000.50,601.25 L 986.50,589.25 L 971.50,580.25 L 960.75,576.00 L 954.25,575.00 L 952.75,573.50 L 953.00,571.25 L 964.75,557.25 L 975.25,547.00 Z M 577.75,550.00 L 581.75,542.25 L 588.00,538.75 L 804.75,538.75 L 811.75,543.25 L 814.00,552.75 L 811.00,558.50 L 805.75,562.00 L 587.00,562.00 L 581.00,558.50 Z M 441.00,514.75 L 473.75,516.75 L 492.50,524.00 L 507.50,534.00 L 528.75,559.25 L 539.00,590.00 L 540.00,604.75 L 537.00,623.75 L 521.75,654.50 L 496.50,676.75 L 464.75,688.00 L 448.00,689.00 L 430.00,686.00 L 400.25,671.75 L 377.00,646.50 L 370.00,632.50 L 364.75,610.75 L 366.75,581.00 L 382.00,549.25 L 392.25,537.75 L 408.25,526.00 L 423.25,519.00 Z M 520.00,309.25 L 555.50,311.00 L 591.75,411.50 L 628.00,312.25 L 632.00,308.75 L 662.50,310.00 L 608.50,460.75 L 577.00,462.00 L 573.00,459.50 L 522.00,322.50 Z M 437.00,307.75 L 453.75,306.75 L 478.50,312.00 L 496.50,322.00 L 512.00,339.00 L 509.50,344.75 L 488.50,359.00 L 466.50,342.25 L 438.00,341.00 L 422.25,349.25 L 410.25,366.25 L 407.00,378.00 L 408.00,397.75 L 416.25,415.50 L 426.25,424.50 L 442.00,430.75 L 458.75,430.75 L 472.50,425.50 L 489.75,411.75 L 511.75,427.25 L 508.75,436.50 L 496.50,448.75 L 466.75,462.00 L 429.00,461.00 L 403.25,448.75 L 384.00,428.50 L 372.75,398.75 L 373.75,368.00 L 388.00,337.25 L 412.25,316.00 Z M 305.25,223.00 L 357.00,203.75 L 735.75,205.75 L 915.00,387.00 L 915.00,580.75 L 888.75,615.75 L 887.75,385.25 L 744.75,371.50 L 732.50,229.25 L 363.00,226.00 L 321.25,243.25 L 296.00,292.00 L 309.25,964.50 L 360.00,994.75 L 684.50,994.75 L 701.75,1010.75 L 809.75,993.75 L 860.50,955.50 L 893.25,834.75 L 893.00,945.75 L 854.50,1002.75 L 798.75,1021.00 L 365.00,1021.00 L 288.00,981.50 L 269.75,935.75 L 269.75,283.00 Z" fill="#ffffff" fill-rule="evenodd"/>
<path d="M 884.50,802.25 L 821.50,758.25 L 816.25,758.25 L 722.25,895.25 L 692.25,996.25 L 694.25,1002.50 L 704.50,1001.50 L 787.50,938.50 L 883.50,808.50 Z M 727.50,951.00 L 730.75,954.25 L 732.00,957.00 L 731.75,961.50 L 729.25,964.25 L 728.75,965.50 L 724.25,970.25 L 723.75,971.50 L 719.50,976.00 L 717.50,977.75 L 716.75,978.00 L 713.25,977.75 L 710.00,974.50 L 709.75,972.00 L 710.50,970.50 L 711.00,968.25 L 718.00,954.25 L 721.25,951.00 L 722.00,950.75 Z M 1020.50,620.25 L 1016.25,621.25 L 1008.00,635.25 L 1016.75,645.25 L 1015.75,653.50 L 938.25,768.25 L 936.00,777.75 L 941.25,784.50 L 946.75,785.75 L 954.50,780.50 L 1036.50,657.50 L 1038.75,648.75 L 1036.50,637.25 L 1032.50,630.25 Z M 953.75,588.00 L 941.00,588.00 L 932.25,594.25 L 826.00,741.00 L 827.25,745.50 L 895.00,792.75 L 898.50,791.50 L 1001.75,636.75 L 1001.75,628.00 L 995.50,616.25 L 978.50,600.25 Z M 579.00,549.00 L 581.25,557.50 L 589.00,561.75 L 802.75,561.75 L 807.50,560.50 L 813.75,551.75 L 811.50,544.25 L 804.75,540.00 L 588.00,540.00 L 584.25,541.25 Z M 908.75,381.00 L 893.00,382.00 L 889.00,384.25 L 889.00,611.50 L 890.50,612.75 L 913.75,580.75 L 913.75,386.00 Z M 520.75,310.25 L 573.50,457.50 L 577.25,460.75 L 607.50,460.50 L 661.50,310.75 L 629.50,311.00 L 591.75,413.75 L 554.50,311.25 L 549.75,309.00 Z M 443.00,308.00 L 410.25,318.25 L 391.25,334.25 L 376.00,363.00 L 373.00,392.75 L 384.25,427.50 L 400.25,445.50 L 428.00,459.75 L 454.75,462.75 L 489.50,452.50 L 507.50,436.50 L 511.50,428.50 L 489.75,413.00 L 473.50,425.75 L 456.75,432.00 L 439.00,431.00 L 425.25,424.75 L 414.00,413.50 L 407.75,399.75 L 405.75,381.00 L 410.00,364.25 L 421.25,349.00 L 439.00,339.75 L 465.50,341.00 L 488.50,357.75 L 508.50,344.50 L 510.75,339.00 L 495.50,322.25 L 483.50,315.25 L 463.75,309.00 Z M 306.25,223.25 L 270.00,290.00 L 270.00,929.75 L 288.25,980.50 L 360.00,1019.75 L 804.75,1019.75 L 856.50,1000.50 L 892.75,941.75 L 893.00,837.25 L 869.00,870.00 L 860.75,956.50 L 808.75,995.00 L 725.00,996.00 L 700.75,1012.00 L 675.75,996.00 L 363.00,996.00 L 309.00,965.50 L 294.75,926.75 L 306.00,259.25 L 367.00,224.75 L 737.00,231.50 L 737.75,212.00 L 353.00,205.00 Z" fill="#0d2b5d" fill-rule="evenodd"/>
<path d="M 378.25,892.25 L 375.50,894.25 L 373.25,897.25 L 371.00,903.00 L 371.00,906.75 L 373.25,912.50 L 378.25,917.50 L 382.00,918.75 L 388.75,918.75 L 392.50,917.50 L 397.50,912.50 L 399.75,906.75 L 399.75,903.00 L 397.50,897.25 L 392.50,892.25 L 389.75,891.00 L 381.00,891.00 Z M 384.00,818.00 L 378.25,820.25 L 374.25,823.25 L 372.25,826.25 L 371.00,830.00 L 371.00,834.75 L 373.25,840.50 L 377.25,844.50 L 382.00,846.75 L 388.75,846.75 L 393.50,844.50 L 397.50,840.50 L 399.75,834.75 L 399.75,831.00 L 398.50,827.25 L 396.50,823.25 L 394.50,821.25 L 390.50,819.25 L 386.75,818.00 Z M 382.00,745.00 L 377.25,747.25 L 373.25,751.25 L 371.00,757.00 L 371.00,761.75 L 374.25,768.50 L 376.25,770.50 L 380.25,772.50 L 382.75,772.75 L 385.50,773.75 L 388.00,772.75 L 390.50,772.50 L 396.50,768.50 L 398.50,764.50 L 399.75,760.75 L 399.75,757.00 L 397.50,751.25 L 393.50,747.25 L 387.75,745.00 Z M 984.25,543.25 L 972.25,550.25 L 955.25,569.25 L 954.25,573.00 L 970.50,579.00 L 984.50,587.00 L 994.50,594.75 L 1005.75,606.25 L 1010.25,613.25 L 1012.25,613.50 L 1014.50,611.50 L 1022.50,597.50 L 1028.75,582.75 L 1029.75,574.00 L 1027.50,564.25 L 1021.50,554.25 L 1016.50,549.25 L 1009.50,545.25 L 999.75,542.00 L 990.00,542.00 Z M 448.00,515.00 L 415.25,523.25 L 396.25,535.25 L 385.25,546.25 L 371.25,570.25 L 365.00,602.75 L 372.25,635.50 L 384.25,655.50 L 397.25,668.50 L 419.25,681.50 L 432.00,685.75 L 459.75,687.75 L 489.50,679.50 L 516.50,659.50 L 533.50,631.50 L 537.75,615.75 L 538.75,596.00 L 535.75,579.00 L 526.50,557.25 L 506.50,534.25 L 474.75,518.00 Z M 400.75,655.00 L 402.00,650.25 L 408.00,639.25 L 420.25,628.00 L 428.25,624.00 L 439.00,620.75 L 458.75,619.75 L 473.50,623.00 L 483.50,628.00 L 491.50,633.75 L 500.75,646.25 L 504.00,655.00 L 504.00,659.75 L 501.50,663.75 L 492.50,669.75 L 472.75,678.00 L 463.75,680.00 L 442.00,680.00 L 424.25,675.75 L 408.25,667.75 L 401.00,661.50 Z M 454.75,545.75 L 462.50,548.00 L 470.50,552.00 L 476.75,558.25 L 480.75,565.25 L 483.00,572.00 L 483.00,581.75 L 478.75,593.50 L 471.50,601.75 L 462.50,606.75 L 450.00,609.00 L 441.25,606.75 L 435.25,603.75 L 429.00,598.50 L 423.00,588.50 L 420.75,580.75 L 420.75,575.00 L 423.00,566.25 L 426.00,560.25 L 432.25,553.00 L 445.00,546.75 Z M 737.25,208.75 L 738.00,354.75 L 743.25,368.50 L 751.25,376.50 L 766.00,382.75 L 912.50,381.00 L 907.50,369.25 L 755.50,217.25 L 743.50,209.25 Z" fill="#1e61db" fill-rule="evenodd"/>
<path d="M 728.50,952.25 L 725.75,951.00 L 723.00,951.00 L 722.00,951.50 L 720.75,953.25 L 718.25,955.25 L 710.25,971.25 L 710.00,972.25 L 710.25,973.50 L 711.25,975.50 L 712.25,976.50 L 715.25,977.75 L 718.50,976.50 L 721.50,973.50 L 722.00,972.25 L 726.50,967.50 L 727.00,966.25 L 730.50,962.50 L 731.75,959.75 L 731.75,957.00 L 730.50,954.25 Z M 432.00,903.00 L 433.75,911.50 L 438.00,914.75 L 624.75,914.75 L 630.50,910.50 L 631.75,906.75 L 629.50,900.25 L 624.75,897.00 L 438.00,897.00 Z M 432.00,831.00 L 433.25,838.50 L 440.00,842.75 L 672.75,842.75 L 680.75,835.75 L 678.50,827.50 L 671.75,824.00 L 441.00,824.00 L 435.25,826.25 Z M 432.00,758.00 L 433.25,765.50 L 439.00,769.75 L 722.75,769.75 L 729.75,763.75 L 729.50,756.25 L 721.75,751.00 L 440.00,751.00 Z M 580.00,660.00 L 581.25,666.50 L 588.00,670.75 L 749.75,670.75 L 753.50,669.50 L 757.75,663.75 L 756.50,656.25 L 748.75,652.00 L 589.00,652.00 L 585.25,653.25 Z M 580.00,605.00 L 581.25,612.50 L 588.00,616.75 L 802.75,616.75 L 809.25,613.50 L 811.75,608.75 L 809.50,601.25 L 803.75,598.00 L 588.00,598.00 Z" fill="#b1c0e0" fill-rule="evenodd"/>
</svg>